<?xml version="1.0" encoding="utf-8"?>
<!-- Generated by IcoMoon.io -->
<!DOCTYPE svg PUBLIC "-//W3C//DTD SVG 1.1//EN" "http://www.w3.org/Graphics/SVG/1.1/DTD/svg11.dtd">
<svg version="1.1" xmlns="http://www.w3.org/2000/svg" xmlns:xlink="http://www.w3.org/1999/xlink" width="80" height="80" viewBox="0 0 80 80">
<path fill="#444444" d="M72.5 80h-2.5v-25h10v17.5c0 4.14-3.358 7.5-7.5 7.5zM70 25h2.5c4.142 0 7.5 3.36 7.5 7.5v20h-10v-27.5zM15 55h20v5c0 1.383 1.12 2.5 2.5 2.5h5c1.383 0 2.5-1.117 2.5-2.5v-5h20v25h-50v-25zM45 52.5v-7.5c0-1.383-1.117-2.5-2.5-2.5h-5c-1.38 0-2.5 1.117-2.5 2.5v7.5h-20v-27.5h5v-6.25c0-10.355 8.955-18.75 20-18.75s20 8.395 20 18.75v6.25h5v27.5h-20zM50 20c0-5.522-4.477-10-10-10s-10 4.478-10 10v5h20v-5zM0 72.5v-17.5h10v25h-2.5c-4.143 0-7.5-3.36-7.5-7.5zM0 32.5c0-4.14 3.357-7.5 7.5-7.5h2.5v27.5h-10v-20z"></path>
</svg>
