<?xml version="1.0" encoding="utf-8"?>
<!-- Generated by IcoMoon.io -->
<!DOCTYPE svg PUBLIC "-//W3C//DTD SVG 1.1//EN" "http://www.w3.org/Graphics/SVG/1.1/DTD/svg11.dtd">
<svg version="1.1" xmlns="http://www.w3.org/2000/svg" xmlns:xlink="http://www.w3.org/1999/xlink" width="100" height="100" viewBox="0 0 100 100">
<path fill="#444444" d="M0 54.167c0 4.604 3.729 8.333 8.333 8.333h20.833v29.167c0 4.604 3.729 8.333 8.333 8.333s8.333-3.729 8.333-8.333l-0-29.167h29.187c2.917 0 5.563-1.208 7.458-3.146l14.456-14.458c4.085-4.083 4.085-10.708 0-14.792l-14.456-14.458c-1.896-1.938-4.542-3.146-7.458-3.146h-29.188v-4.167c0-4.604-3.729-8.333-8.333-8.333s-8.333 3.729-8.333 8.333v4.167h-20.833c-4.604 0-8.333 3.729-8.333 8.333v33.333z"></path>
</svg>
