<?xml version="1.0" encoding="utf-8"?>
<!-- Generated by IcoMoon.io -->
<!DOCTYPE svg PUBLIC "-//W3C//DTD SVG 1.1//EN" "http://www.w3.org/Graphics/SVG/1.1/DTD/svg11.dtd">
<svg version="1.1" xmlns="http://www.w3.org/2000/svg" xmlns:xlink="http://www.w3.org/1999/xlink" width="100" height="100" viewBox="0 0 100 100">
<path fill="#444444" d="M84.375 90.625l-6.247-0.194v6.444h-9.375v-6.25h-37.306l-0.194 6.25h-9.375v-6.056l-6.253-0.194c-3.45 0-6.25-2.8-6.25-6.25v-75c0-3.45 2.8-6.25 6.25-6.25h68.75c3.45 0 6.25 2.8 6.25 6.25v75c0 3.45-2.8 6.25-6.25 6.25zM81.25 12.5h-62.5v12.369l-3.059-0.063v9.634h3.059v24.741h-3.125v9.569h3.125v12.5h62.5v-68.75zM78.125 78.125h-56.25v-9.375h3.125v-9.569h-3.125v-24.806h3.125l0.066-9.506h-3.191v-9.244h56.25v62.5zM45.506 33.006c-6.903 0-12.5 5.597-12.5 12.5s5.597 12.5 12.5 12.5c6.906 0 12.5-5.597 12.5-12.5s-5.594-12.5-12.5-12.5zM73.438 35.994c0-1.728-1.397-3.125-3.125-3.125-1.725 0-3.125 1.397-3.125 3.125 0 1.144 0.647 2.103 1.563 2.647v16.528c-0.916 0.544-1.563 1.5-1.563 2.647 0 1.725 1.4 3.125 3.125 3.125 1.728 0 3.125-1.4 3.125-3.125 0-1.231-0.725-2.269-1.756-2.778v-16.266c1.031-0.513 1.756-1.55 1.756-2.778zM45.313 50.781c-2.587 0-4.688-2.1-4.688-4.688 0-2.591 2.1-4.688 4.688-4.688 2.591 0 4.688 2.097 4.688 4.688 0 2.587-2.097 4.688-4.688 4.688z"></path>
</svg>
